<svg viewBox="0 0 512 512" xmlns="http://www.w3.org/2000/svg"><g id="Treadmill_exercise_with_fitness_trainer" data-name="Treadmill exercise with fitness trainer"><path d="m160.56 119.65-46.06 28.53a12.06 12.06 0 0 0 -2.58 18.36l38.69 42.67 9.41-7q-12.68-20.68-25.33-41.38l30.85-16.26z" fill="#fdc500"/><path d="m253.61 136.65 11.39-9.28 4.54-10c.81-1.78 1.35-2 7.81-7.87a2.41 2.41 0 0 1 3.32-.5 2.27 2.27 0 0 1 .58 2.4l-1.74 2.66a3.08 3.08 0 0 1 4.31.33 2.81 2.81 0 0 1 0 2.82 2.71 2.71 0 0 1 3.07.16 2.74 2.74 0 0 1 .58 3.49 2.56 2.56 0 0 1 3.07 4 2.62 2.62 0 0 1 2.74.83 2.69 2.69 0 0 1 -.25 3.48q-4.59 5.1-9.17 10.21a6.27 6.27 0 0 1 -4.64 2.06h-3.44l-7.47 6.89z" fill="#e67925"/><path d="m170.18 90.08h13.23v25.14h-13.23z" fill="#e67925" transform="matrix(.99 .144 -.144 .99 16.62 -24.38)"/><path d="m196.33 82.47a15.17 15.17 0 1 0 -26.43 9c.28.78.57 1.47.84 2.06 2.3 5.1 5.26 10.37 10.9 11.14 4.83.88 9.26-2.56 10.57-7 4.01-13.67 3.98-13.23 4.12-15.2z" fill="#e67925"/><path d="m185.19 95.66-1.92-.17a.49.49 0 0 1 -.45-.54.5.5 0 0 1 .54-.46l1.82.17c.27 0 .16-.13-.56-5.25a.5.5 0 0 1 1-.14l.71 5.09a1.14 1.14 0 0 1 -1.14 1.3z" fill="#262246"/><path d="m189.86 87.77a1.29 1.29 0 1 0 1.19 1.38 1.29 1.29 0 0 0 -1.19-1.38z" fill="#262246"/><path d="m180.09 87a1.29 1.29 0 1 0 1.19 1.39 1.29 1.29 0 0 0 -1.19-1.39z" fill="#262246"/><path d="m181.28 83c-.37-.12-2.55-.84-4.13.45-.53.44-1 1.09-.83 1.26s1.36-1 3-.91c1.41.09 2.26 1.15 3 .68 0 0 .35-.22.34-.52-.03-.5-1.07-.85-1.38-.96z" fill="#262246"/><path d="m193.43 84.58c-1.39-1.49-3.65-1.08-4-1s-1.4.26-1.48.77a.69.69 0 0 0 .27.56c.65.56 1.63-.37 3-.26 1.64.12 2.61 1.54 2.85 1.31s-.17-.87-.64-1.38z" fill="#262246"/><path d="m182.91 105.4a9.92 9.92 0 0 1 -8.1-4.77.5.5 0 0 1 .86-.52 8.94 8.94 0 0 0 7.27 4.3.5.5 0 0 1 -.03.99z" fill="#68003c"/><path d="m179.76 95.87a.5.5 0 0 1 1 .09 2.12 2.12 0 0 0 3 2.14.51.51 0 0 1 .66.27.51.51 0 0 1 -.27.65 3.12 3.12 0 0 1 -4.39-3.15z" fill="#262246"/><path d="m180.44 191.55c40.35 109 38.18 102.22 38.88 107.29q8.94 65.25 17.9 130.49h-15.42a562.58 562.58 0 0 1 -27.8-126.67c-22.87-30.6-38.49-65.42-44.61-103.74z" fill="#e67925"/><path d="m151.65 186.87-12.81 19.81a37.91 37.91 0 0 0 -5.12 29l14.82 64.67c-35.31 9.92-65.67 30.83-89.76 59.95q2.22 6.8 4.46 13.6l105.43-57.25a18.13 18.13 0 0 0 9.39-17.84q-4.29-40.78-8.57-81.57 2.26-11 4.52-21.91z" fill="#e67925"/><path d="m167.2 110.7c1.55-1 3-2.84 4.86-2.61a4.39 4.39 0 0 1 2.68 1.53l5.23 1.49c3.38 5.39 9.68 16.26 11.4 22.37a20.36 20.36 0 0 1 1.36 9.87l-8.28 63-40.78-6.95c.27-5.54 2.26-43.07 9.93-67.68 2.56-8.18 6.07-15.96 13.6-21.02z" fill="#fdc500"/><path d="m221 419.65q-3.92 12.44-7.84 24.88h67.46a7 7 0 0 0 -3.31-8.83 195.26 195.26 0 0 1 -44.14-17.47z" fill="#2351fb"/><path d="m64.48 356.1-25.89 3.17 28 61.39a7 7 0 0 0 6.61-6.66 195.45 195.45 0 0 1 -2.39-47.41z" fill="#2351fb"/><path d="m311.31 423.68c11.69-79.33-2.64-157.68-38.76-227.15l13.71-.32a392.92 392.92 0 0 1 57.41 226z" fill="#68003c"/><path d="m170.51 116.09 43 53.49 48-39.58 11.14 13a33.8 33.8 0 0 1 -1.09 14.53c-2.48 5.23-26.49 22.87-50 43.17a11.22 11.22 0 0 1 -15.17-.47l-44.37-43.3c-.52-.63-9.89-12.42-5-26.12a26.92 26.92 0 0 1 13.49-14.72z" fill="#fdc500"/><path d="m291.89 206.88-10.76-5.5 23.36-45.73a12.09 12.09 0 0 1 16.26-5.26z" fill="#68003c"/><path d="m34.49 455.46h316.43v14.96h-316.43z" fill="#68003c"/><path d="m337.94 459.17h-321.68l10.42-7.61a36.48 36.48 0 0 1 21.54-7h289.72z" fill="#68003c"/><path d="m372.26 459.17h-85.44v-14.35a42.33 42.33 0 0 1 42.33-42.33 43.12 43.12 0 0 1 43.11 43.11z" fill="#68003c"/><path d="m143.77 193.46c-.66 2.07-1.33 4.14-2 6.22l-2.55 3.8a46.52 46.52 0 0 0 -7.78 29.05l3.24 47.88a109.62 109.62 0 0 0 41.32-1.59c-.3-2.86-.61-5.72-.91-8.58a104.2 104.2 0 0 0 31.16-9.07q-10.08-28.88-20.15-57.76l-.3-7a192.53 192.53 0 0 1 -42.03-2.95z" fill="#2351fb"/><path d="m161.33 116-12 14-14 56.62c-.14.38-1.84 5 .87 8.58a8 8 0 0 0 3.49 2.61c-.15 1.89-.29 3.78-.44 5.67 0 0 27.48 9.31 48.17 3.75l.65-5.31a8 8 0 0 0 4.23-7.59l-2.52-55.6z" fill="#fdc500"/><path d="m170.35 107.21c-13-1.33-24.11 5.3-29.69 11.61-2.37 2.69-3.48 4.79-3.6 6.82-.24 4 3 6.87 2.77 10.1-.33 4.81 9.62 12.44 9.62 12.44l18.83-28.53 15.63-2.65a6.88 6.88 0 0 0 -.29-3.65c-1.93-4.97-10.1-5.81-13.27-6.14z" fill="#fdc500"/><g fill="#68003c"><path d="m143.67 156.55a.49.49 0 0 1 -.49-.58c1.89-11 1.7-10.43 2-10.6a19.35 19.35 0 0 0 7-8c2.81-5.78 5.36-22.13 15-25.59s17.09 4.82 17.17 4.91a.5.5 0 0 1 0 .7.5.5 0 0 1 -.71 0c-.07-.07-7.19-7.83-16.08-4.63-9 3.26-11.57 19.27-14.4 25.08a20.51 20.51 0 0 1 -7.17 8.34l-1.72 10a.49.49 0 0 1 -.6.37z"/><path d="m138.8 137.89c1.14-3 .09-4.7 0-4.77a.5.5 0 0 1 .15-.69.49.49 0 0 1 .68.14c.06.08 1.39 2.15 0 5.67-1.13 3 2.57 7.76 5.59 7.08a.51.51 0 0 1 .6.38.5.5 0 0 1 -.38.59c-3.74.87-8.04-4.71-6.64-8.4z"/><path d="m192.73 143.85a.49.49 0 0 1 -.43-.24l-9.08-15.08a17.43 17.43 0 0 0 -7.64-6.83l-9.75-4.49a.52.52 0 0 1 -.25-.67.5.5 0 0 1 .67-.24l9.75 4.49a18.29 18.29 0 0 1 8.07 7.23l9.09 15.07a.5.5 0 0 1 -.43.76z"/><path d="m189.42 183.76c-.34 0 1.63 2-29-31a.5.5 0 0 1 0-.71.51.51 0 0 1 .71 0l28.67 30.85a.5.5 0 0 1 -.38.86z"/><path d="m134.66 191.3a.5.5 0 0 1 -.49-.61l5-21.85a.5.5 0 0 1 1 .23l-5 21.85a.49.49 0 0 1 -.51.38z"/><path d="m134.69 161.29c-.14 0 .58.25-11.12-4.18a.5.5 0 0 1 -.29-.65.49.49 0 0 1 .64-.29l11 4.15a.5.5 0 0 1 -.23.97z"/><path d="m175.05 270.74a.5.5 0 0 1 -.49-.45l-2.56-27.36c0-.12-.21.93 3.39-17.06a.5.5 0 0 1 1 .19l-3.39 16.85 2.54 27.28a.5.5 0 0 1 -.49.55z"/><path d="m174.25 82.7s4.13.13 5.22-3.43 1.75-6.64 5.1-7.8c0 0 2.36-.25 2.86 4.23s7.88 5.21 7.88 5.21a10.21 10.21 0 0 1 .24 5.38s5-2.63 3.49-10.42-7.38-12.27-15.13-11.11a15.39 15.39 0 0 0 -9.17-1.66 16.43 16.43 0 0 0 -9.45 5.22c-5.76 6.67-4.76 17.84-.75 24.26 1.61 2.57 5.82 7.67 5.91 7.79 1.99-12.03 1.1-8.04 3.8-17.67z"/></g><path d="m174.35 87.51a3.44 3.44 0 1 0 -1.54 5 3.72 3.72 0 0 0 1.54-5z" fill="#e67925"/><path d="m171.88 91.57a2 2 0 0 1 -1.13-3l-1.23-.09a.5.5 0 0 1 .08-1l2.54.19a.5.5 0 0 1 .09 1 1.06 1.06 0 0 0 -.15 2 .5.5 0 0 1 -.2.9z" fill="#262246"/><circle cx="166.78" cy="59.03" fill="#68003c" r="9.04"/><path d="m173.6 203.41a113.59 113.59 0 0 1 -34.1-5.13.5.5 0 1 1 .33-.94 113.32 113.32 0 0 0 48.17 4.08.51.51 0 0 1 .57.43.5.5 0 0 1 -.43.56 102.29 102.29 0 0 1 -14.54 1z" fill="#68003c"/><path d="m139.53 227.84c14.37-4.07 15.29-14.53 15.32-15a.52.52 0 0 1 .54-.46.5.5 0 0 1 .46.53c0 .12-1 11.6-16 15.87a.5.5 0 0 1 -.32-.94z" fill="#68003c"/><path d="m192 226.42c-6.36-2.77-8.55-12.17-8.64-12.57a.5.5 0 0 1 1-.22c0 .1 2.16 9.31 8.06 11.88a.5.5 0 0 1 -.42.91z" fill="#68003c"/><path d="m90.93 329.27 15.47 21.24-35.82 19.71s-.32-2.45-5.59-3.65-5.36-9.88-5.36-9.88a255.94 255.94 0 0 1 31.3-27.42z" fill="#fdc500"/><path d="m194 303.16a.5.5 0 0 1 -.4-.8l7.15-9.69a.5.5 0 0 1 .7-.1.51.51 0 0 1 .11.7c-7.84 10.55-7.24 9.89-7.56 9.89z" fill="#68003c"/><path d="m162.89 300.89h-14.35a.5.5 0 1 1 0-1h14.35a.5.5 0 0 1 0 1z" fill="#68003c"/><path d="m208.26 383.92 22-5.24 6.95 41.7s-4-1.53-7 3.45-11.06 1.63-11.06 1.63z" fill="#fdc500"/><path d="m69.26 416.62a.49.49 0 0 1 -.45-.29l-25.63-54.48a.51.51 0 0 1 .24-.67.5.5 0 0 1 .67.24l25.62 54.48a.5.5 0 0 1 -.45.72z" fill="#68003c"/><path d="m69.29 388.06c-.19 0 .26.23-5.74-3.17a.93.93 0 0 1 .49-1.74l2.85.08-3.07-1.39a.93.93 0 0 1 .34-1.78l2.94-.14-3.56-1.84a.93.93 0 0 1 .49-1.76l3 .2-3.43-2.58a.93.93 0 0 1 .68-1.67l4 .53a.5.5 0 0 1 .44.56.51.51 0 0 1 -.57.43l-3.76-.5 3.4 2.56a.94.94 0 0 1 -.62 1.68l-2.85-.19 3.49 1.81a.93.93 0 0 1 -.39 1.76l-2.9.13 3.12 1.41a.94.94 0 0 1 -.41 1.79l-2.92-.09 5.26 3a.5.5 0 0 1 -.28.91z" fill="#68003c"/><path d="m278.36 441.87h-60.2a.5.5 0 0 1 -.5-.5.5.5 0 0 1 .5-.5h60.2a.5.5 0 0 1 .5.5.5.5 0 0 1 -.5.5z" fill="#68003c"/><path d="m252.67 434a1.21 1.21 0 0 1 -1-1.83c.79-1.32.8-1.27.7-1.41s.31-.19-5.92 1.15a1.21 1.21 0 0 1 -1.13-2l1.1-1.16a.19.19 0 0 0 0-.24c-.1-.19.19-.19-5 .82a1.2 1.2 0 0 1 -1-2.13c1-.81 1.06-.79 1-1s.14-.14-4.64.07a1.21 1.21 0 0 1 -.61-2.28l2.93-1.51a.5.5 0 1 1 .46.89l-2.93 1.51a.21.21 0 0 0 .11.39l4.44-.2a1.21 1.21 0 0 1 .8 2.15l-.93.74a.2.2 0 0 0 .16.36l4.77-.93a1.21 1.21 0 0 1 1.11 2l-1.09 1.15a.21.21 0 0 0 .2.34l5.71-1.23a1.2 1.2 0 0 1 1.29 1.79l-.71 1.19a.21.21 0 0 0 .25.3l5.47-2a.5.5 0 0 1 .35.94c-5.98 2.19-5.56 2.13-5.89 2.13z" fill="#68003c"/><path d="m258.31 132.68 6.22-5.15 11.22 13.93-4.36 4.85z" fill="#fdc500"/><path d="m271.52 118.74a.5.5 0 0 1 -.23-.94l8-4.15a.5.5 0 0 1 .67.22.49.49 0 0 1 -.21.67c-8.56 4.46-8.05 4.2-8.23 4.2z" fill="#68003c"/><path d="m279.89 121.23a.5.5 0 0 1 -.33-.87l3.9-3.48a.5.5 0 1 1 .66.74c-4.21 3.77-3.96 3.61-4.23 3.61z" fill="#68003c"/><path d="m283.79 125.05a.5.5 0 0 1 -.35-.86l3.65-3.65a.5.5 0 0 1 .7 0 .5.5 0 0 1 0 .71c-4.01 4.02-3.71 3.8-4 3.8z" fill="#68003c"/><path d="m287.94 129a.5.5 0 0 1 -.41-.79l2.57-3.58a.5.5 0 0 1 .7-.12.51.51 0 0 1 .12.7l-2.58 3.58a.48.48 0 0 1 -.4.21z" fill="#68003c"/><path d="m213.55 188a.51.51 0 0 1 -.5-.5v-17.92a.5.5 0 0 1 .5-.5.5.5 0 0 1 .5.5v17.91a.5.5 0 0 1 -.5.51z" fill="#68003c"/><path d="m287.86 206.88h-119.93a4.76 4.76 0 0 1 -.17-9.51l119.93-4.37a4.76 4.76 0 0 1 4.93 4.75v4.33a4.76 4.76 0 0 1 -4.76 4.8z" fill="#68003c"/><circle cx="264.37" cy="131.8" fill="#68003c" r="1.8"/><path d="m349 459.67h-314.51a.5.5 0 0 1 -.5-.5.5.5 0 0 1 .5-.5h314.51a.5.5 0 0 1 .5.5.5.5 0 0 1 -.5.5z" fill="#fff"/><path d="m313.54 406a.5.5 0 0 1 -.2-1 40 40 0 0 1 31.05-.29.5.5 0 0 1 .28.65.5.5 0 0 1 -.65.28c-16.66-6.81-29.74.36-30.48.36z" fill="#fff"/><path d="m425.38 74.38h13.26v25.2h-13.26z" fill="#e67925" transform="matrix(-1 0 0 -1 864.01 173.96)"/><path d="m431.76 50a15.21 15.21 0 0 0 -16 18l1.68 11.73a9.85 9.85 0 0 0 7.83 8.39 13 13 0 0 0 2.51.06c5.81-.48 9.49-6.23 11.55-9.45.35-.54.73-1.19 1.13-1.92a15.21 15.21 0 0 0 -8.7-26.81z" fill="#e67925"/><path d="m426.65 78.94-1.86-.1a1.14 1.14 0 0 1 -1-1.46l1.44-4.94a.51.51 0 0 1 .62-.34.5.5 0 0 1 .34.62l-1.44 4.94a.14.14 0 0 0 .13.18l1.82.11a.5.5 0 0 1 -.05.99z" fill="#262246"/><path d="m421.2 70.34a1.29 1.29 0 0 0 -.18 2.58 1.3 1.3 0 0 0 1.38-1.21 1.29 1.29 0 0 0 -1.2-1.37z" fill="#262246"/><path d="m431 71a1.29 1.29 0 1 0 1.2 1.38 1.29 1.29 0 0 0 -1.2-1.38z" fill="#262246"/><path d="m430.4 66.85c-.32.06-1.41.25-1.49.76a.75.75 0 0 0 .26.57c.65.56 1.64-.36 3.06-.25 1.64.14 2.6 1.57 2.84 1.34s-.94-3.07-4.67-2.42z" fill="#262246"/><path d="m422.26 66.24c-.37-.13-2.55-.86-4.14.42-.54.43-1 1.08-.85 1.26s1.37-1 3-.89c1.41.1 2.25 1.16 3 .7 0 0 .35-.23.35-.52-.01-.51-1.05-.87-1.36-.97z" fill="#262246"/><path d="m425.56 88.83a.5.5 0 0 1 -.44-.55.5.5 0 0 1 .55-.44 9 9 0 0 0 7.82-3.21.52.52 0 0 1 .71-.07.51.51 0 0 1 .06.71 10 10 0 0 1 -8.7 3.56z" fill="#68003c"/><path d="m446.5 191.09q5.73 18.61 11.47 37.22a37 37 0 0 1 1.65 11.19q-.22 40.89-.46 81.78a434.49 434.49 0 0 1 11.5 130.5l-16.25.94q-20.2-111.72-38.25-231.94.84-12.57 1.67-25.14z" fill="#2351fb"/><path d="m394.82 188.78q-5.91 18.22-11.82 36.34a31.4 31.4 0 0 0 -1.53 10.58q1.17 46.55 2.36 93.08l11 122.84 16.41.42a420.2 420.2 0 0 0 -.89-127.26l13.5-101-6-27.57z" fill="#2351fb"/><path d="m432.19 96.58 20.08 2.8a22.87 22.87 0 0 1 18.66 15.76l26.64 84.31-25.33 1.66-35-84.66q-2.52-9.94-5.05-19.87z" fill="#e67925"/><path d="m428.9 96.33-21.1-1.9a20.77 20.77 0 0 0 -20.71 11.94l-34.85 75.08 19.67 15 35.66-69.67z" fill="#e67925"/><path d="m352.41 100q10.74 44.81 21.5 89.6c-.31 7.4-5.91 13.4-12.67 14.22-7.69.9-15.27-5.1-16.08-13.58q-5-43.87-10-87.75z" fill="#e67925"/><path d="m411.49 444.78 8.91 25.64h-78.66a9.07 9.07 0 0 1 4.5-12.39 159.55 159.55 0 0 0 49-16.47z" fill="#fdc500"/><path d="m437.82 470.42 14.58-28.86 18.84-2.11 14.58 30.97z" fill="#fdc500"/><path d="m379.79 232.76.62 85.27 6.57 127.58 29.18 2.5-1.24-81.02-15.35-95.98z" fill="#2351fb"/><path d="m419.34 241.9 8.57 84.88 18 115.33 25.33-2.66-25.95-119-10-79.63z" fill="#2351fb"/><path d="m382.55 216.36-3.81 22.64a178.71 178.71 0 0 0 81.19 4.09l-1-26z" fill="#fdc500"/><path d="m432.19 96.58-27.36-3.23a19.22 19.22 0 0 0 -19.35 10.31l-20.57 40.12 28 16.67c19.48-31.64 10.65-17.27 39.28-63.87z" fill="#68003c"/><path d="m428.9 96.33 26.34 2.1a22.33 22.33 0 0 1 19.22 14.67l19.78 54.7-39.33 9.2-5-60.55z" fill="#68003c"/><path d="m395.3 98.78 38.44-2.2 32.85 8.84-5.34 92.21q1.49 13.53 3 27.07c.24 2.23-1.46 4.28-4 4.83-26.45 5.66-54.3 4.18-79.43-6.7a4.28 4.28 0 0 1 -2.73-4.94q3.23-12.76 6.47-25.52z" fill="#fdc500"/><path d="m394.86 102.64.75-7.44a3.48 3.48 0 0 1 3.95-3.1l25.82 3.67 3.52 4.45z" fill="#fdc500"/><path d="m437.28 96.84 25.26 1.74a4.64 4.64 0 0 1 4.3 5l-.51 6.33-22.24-2.76-9.93-7z" fill="#fdc500"/><path d="m416.9 94.57s-2.63 16.34 12 19.09 17-16.27 17-16.27z" fill="#68003c"/><path d="m425.34 95.28a6.76 6.76 0 0 0 13.32 1.34l-6.66-3.41z" fill="#e67925"/><path d="m417.25 228.58a.5.5 0 0 1 -.5-.54l9.4-114a.51.51 0 0 1 .54-.46.5.5 0 0 1 .45.54l-9.39 114a.5.5 0 0 1 -.5.46z" fill="#68003c"/><path d="m386 211.45a25 25 0 0 0 19.6-15.16.5.5 0 0 1 .95.32 26 26 0 0 1 -20.4 15.83.5.5 0 0 1 -.15-.99z" fill="#68003c"/><path d="m442.53 208.49a59.69 59.69 0 0 1 -7.63-9.61.5.5 0 0 1 .85-.53c.12.2 12.17 19.63 23.17 16a.5.5 0 1 1 .31.95c-6.01 1.97-12.23-2.3-16.7-6.81z" fill="#68003c"/><path d="m402.41 229.48c-13.34-2.5-21.09-5.86-21.17-5.9a.5.5 0 0 1 .41-.91c.3.13 30.91 13.25 76.7 6.73a.51.51 0 0 1 .57.42.51.51 0 0 1 -.43.57 174.49 174.49 0 0 1 -56.08-.91z" fill="#68003c"/><path d="m352.7 96.24-8.79-20.89a3.58 3.58 0 0 0 -6 3.23q1.33 4.35 2.66 8.72l-11.48.28c-2.63.07-4.09 3-3.35 5.12a4.38 4.38 0 0 0 3 2.5 3.65 3.65 0 0 0 0 7.18 3.39 3.39 0 0 0 1 6.36c-2.59 2.5-.52 5.81 2.83 6.05l16.34-3.05a15.55 15.55 0 0 0 3.79-15.5z" fill="#e67925"/><path d="m372.09 182.52a.5.5 0 0 1 -.48-.37l-7.19-27.87a.5.5 0 1 1 1-.25l7.19 27.87a.5.5 0 0 1 -.52.62z" fill="#68003c"/><path d="m343.32 97.85a.49.49 0 0 1 -.32-.12c-3.92-3.32-3-10.21-2.92-10.51a.5.5 0 0 1 1 .15c0 .06-.91 6.64 2.58 9.6a.5.5 0 0 1 -.34.88z" fill="#68003c"/><path d="m335 114a.5.5 0 0 1 -.2-1l6.92-3a2.62 2.62 0 0 0 -.89-4.71.51.51 0 0 1 -.07-1 2.25 2.25 0 0 0 -.76-4.29.5.5 0 0 1 -.35-.84 3.47 3.47 0 0 0 .91-2.26 3.76 3.76 0 0 0 -1.83-3 .5.5 0 0 1 0-.85 2.78 2.78 0 0 0 -.5-4.87.5.5 0 0 1 -.26-.66.49.49 0 0 1 .65-.26 3.78 3.78 0 0 1 1.21 6.18 4.21 4.21 0 0 1 1.1 5.69 3.25 3.25 0 0 1 1.13 5.6 3.61 3.61 0 0 1 .14 6.16c-7.65 3.29-7.06 3.11-7.2 3.11z" fill="#68003c"/><path d="m328.49 95.63a.5.5 0 0 1 -.08-1l10.5-1.63a.5.5 0 0 1 .57.42.49.49 0 0 1 -.41.57c-10.8 1.68-10.48 1.64-10.58 1.64z" fill="#68003c"/><path d="m328.49 102.81a.5.5 0 0 1 -.12-1l11.53-2.81a.51.51 0 0 1 .61.37.5.5 0 0 1 -.37.6c-12.26 3.03-11.55 2.84-11.65 2.84z" fill="#68003c"/><path d="m329.74 109.24a.5.5 0 0 1 -.17-1l11.2-4a.5.5 0 0 1 .33.94c-11.97 4.31-11.23 4.06-11.36 4.06z" fill="#68003c"/><path d="m334.9 114a.5.5 0 0 1 .14-1 22.77 22.77 0 0 0 10.58-1.1.5.5 0 0 1 .33.95 23.87 23.87 0 0 1 -11.05 1.15z" fill="#68003c"/><path d="m424.81 81.19 5.57-1.28a3.19 3.19 0 0 1 -3 3 3.05 3.05 0 0 1 -2.57-1.72z" fill="#fff"/><path d="m438.66 85-.11-15.82s1.77-6.47-3.44-6.85-6.21-4.33-6.21-4.33-2.45 4.38-6.08 1.21c0 0-.45 3.37-5.33 1.42 0 0-1.76 1.08-2 4.54 0 0-8.26-.34-8.26-6.75a5.68 5.68 0 0 1 5.92-6.17s-1.5-6.25 6.25-4.5c0 0 2.68-7.14 10.2-1.75a16.47 16.47 0 0 1 12.21.5 7.94 7.94 0 0 1 4.59 9.25 7.89 7.89 0 0 1 3.25 2.83c1.58 2.54 1 5.4.66 7.25-1.65 8.22-10.13 17.48-11.65 19.17z" fill="#68003c"/><path d="m441.61 70.71a4 4 0 1 0 .81 5.18 3.72 3.72 0 0 0 -.81-5.18z" fill="#e67925"/><path d="m438.42 75.72a1.06 1.06 0 0 0 .14-2 .5.5 0 0 1 .23-1l2.55.18a.49.49 0 0 1 .47.53.51.51 0 0 1 -.54.46l-1.27-.05a2.05 2.05 0 0 1 -1.36 2.85.5.5 0 0 1 -.22-.97z" fill="#262246"/><path d="m412.03 126.15h53.22v73.3h-53.22z" fill="#2351fb" transform="matrix(.981 .194 -.194 .981 39.87 -81.92)"/><rect fill="#68003c" height="5.97" rx="1.1" transform="matrix(.981 .194 -.194 .981 33.03 -83.98)" width="17.97" x="436.76" y="123.82"/><path d="m490.82 191.2c-7.53-4.82-24.17-17.36-47.25-35.09l-8.25 14.34 40.42 39.66c6.85 6.18 16 5.82 20 1.34 3.25-3.63 2.89-9.69 1.08-13.67a15.53 15.53 0 0 0 -6-6.58z" fill="#e67925"/><path d="m445.16 158.78-6-13.42a4.38 4.38 0 0 0 -1.71-2l-11.82-7.21a1.91 1.91 0 0 0 -2.34-.09 2 2 0 0 0 0 2.84l6.34 5.83-11.17-5.92a1.79 1.79 0 0 0 -1.67 3.17l8.25 6.17-8.82-3.79a2 2 0 0 0 -1.81 1.15 2.06 2.06 0 0 0 1.05 2.55l8.25 5.17-7.8-1.23c-2.35.13-2.4 2.85-.42 3.67l9.58 3.08 5.79 9.95a6.56 6.56 0 0 0 7.43 3l2.37-.67z" fill="#e67925"/><path d="m488.29 190c-.25 0 1.14.95-21.39-15.49a.5.5 0 1 1 .59-.81l21.09 15.4a.5.5 0 0 1 -.29.9z" fill="#68003c"/><path d="m416.16 467.45h-68.09a.51.51 0 0 1 -.5-.5.5.5 0 0 1 .5-.5h68.09a.5.5 0 0 1 .5.5.51.51 0 0 1 -.5.5z" fill="#68003c"/><path d="m398 467.45a.5.5 0 0 1 -.49-.63c3.28-12.16 14.87-14.56 15-14.59a.5.5 0 0 1 .58.4.48.48 0 0 1 -.39.58c-.11 0-11.1 2.32-14.21 13.87a.5.5 0 0 1 -.49.37z" fill="#68003c"/><path d="m481.91 467.45h-38.08a.5.5 0 0 1 -.5-.5.5.5 0 0 1 .5-.5h38.08a.5.5 0 0 1 .5.5.51.51 0 0 1 -.5.5z" fill="#68003c"/><path d="m454.07 456.49a.5.5 0 0 1 -.06-1l11.59-1.58-9.23-1.49a.79.79 0 0 1 0-1.57l9-1.21-8-.95a.79.79 0 0 1 -.14-1.54l7.72-2.37h-8.91a.5.5 0 1 1 0-1h10.3a.79.79 0 0 1 .23 1.55l-8.11 2.48 8.68 1a.8.8 0 0 1 0 1.58l-9.26 1.24 9.21 1.48a.79.79 0 0 1 0 1.57c-13.15 1.83-12.92 1.81-13.02 1.81z" fill="#68003c"/><path d="m369 459.23-3.6-4.32a.49.49 0 0 1 .06-.7.51.51 0 0 1 .71.06l3.49 4.19v-4.61a.94.94 0 0 1 1.63-.64l4.42 4.83-.64-5.08a.94.94 0 0 1 1.58-.79l4.16 4-.56-5.46a.93.93 0 0 1 1.57-.77l4.18 3.96-1.49-5.66a.5.5 0 1 1 1-.25l1.55 5.86a.94.94 0 0 1 -1.55.93l-4.19-4 .56 5.46a.94.94 0 0 1 -1.59.77l-4.15-4 .65 5.1a.94.94 0 0 1 -1.62.75l-4.51-4.86v4.62a.94.94 0 0 1 -1.66.61z" fill="#68003c"/><path d="m410.32 325.28c-.15 0 .51.25-9.27-3.7a.5.5 0 0 1 .38-.93l9.07 3.67a.5.5 0 0 1 -.18.96z" fill="#68003c"/></g></svg>